<svg width="117" height="46" viewBox="0 0 117 46" fill="none" xmlns="http://www.w3.org/2000/svg">
<path fill-rule="evenodd" clip-rule="evenodd" d="M65.4248 30.9775C67.376 30.9775 68.4219 30.0723 68.4219 28.1387V17.3281C68.4219 15.3945 67.376 14.3574 65.4248 14.3574H57.8574C56.5391 14.3574 55.7041 14.6738 54.8516 15.623L50.0615 20.8174C49.3584 21.5996 49.1299 22.0918 49.1299 22.6543C49.1299 23.2168 49.3672 23.7178 50.0615 24.4912L54.8516 29.668C55.7129 30.626 56.5391 30.9688 57.8574 30.9688L65.4248 30.9775ZM65.2402 28.9648H57.7432C57.1807 28.9648 56.8027 28.8066 56.3984 28.376L51.6436 23.252C51.415 23.0146 51.3447 22.8389 51.3447 22.6543C51.3447 22.4697 51.4238 22.3027 51.6436 22.0654L56.3984 16.915C56.7939 16.4844 57.1807 16.3701 57.7344 16.3701H65.2402C66.0049 16.3701 66.4092 16.748 66.4092 17.5479V27.7783C66.4092 28.5781 66.0049 28.9648 65.2402 28.9648ZM64.0801 25.4492C64.0801 25.9414 63.7021 26.3369 63.21 26.3369C62.9463 26.3369 62.7441 26.2402 62.5684 26.0732L60.415 23.9199L58.2617 26.0732C58.0947 26.249 57.8838 26.3369 57.6289 26.3369C57.1367 26.3369 56.75 25.9414 56.75 25.4492C56.75 25.2207 56.8467 25.0098 57.0137 24.8516L59.1758 22.6807L57.0137 20.5098C56.8467 20.3428 56.75 20.1318 56.75 19.9033C56.75 19.4111 57.1367 19.0332 57.6289 19.0332C57.8838 19.0332 58.0859 19.1211 58.2529 19.2881L60.415 21.4502L62.5859 19.2881C62.7705 19.1035 62.9639 19.0244 63.2188 19.0244C63.7021 19.0244 64.0889 19.4023 64.0889 19.8945C64.0889 20.123 64.001 20.3252 63.8252 20.501L61.6631 22.6807L63.8164 24.8428C63.9922 25.0098 64.0801 25.2207 64.0801 25.4492Z" fill="#141029" fill-opacity="0.8"/>
</svg>
