<svg width="24" height="24" viewBox="0 0 24 24" fill="none" xmlns="http://www.w3.org/2000/svg">
<path fill-rule="evenodd" clip-rule="evenodd" d="M6.13672 14.1016C7.08203 14.1016 7.87891 13.3047 7.87891 12.3672C7.87891 11.3906 7.12109 10.6328 6.13672 10.6328C5.18359 10.6328 4.40234 11.4062 4.40234 12.3672C4.40234 13.3047 5.18359 14.1016 6.13672 14.1016ZM11.9961 14.1016C12.9414 14.1016 13.7305 13.3047 13.7305 12.3672C13.7305 11.3906 12.9727 10.6328 11.9961 10.6328C11.043 10.6328 10.2695 11.4062 10.2695 12.3672C10.2695 13.3047 11.043 14.1016 11.9961 14.1016ZM19.5977 12.3672C19.5977 13.3047 18.8008 14.1016 17.8633 14.1016C16.9023 14.1016 16.1211 13.3047 16.1211 12.3672C16.1211 11.4062 16.9023 10.6328 17.8633 10.6328C18.8398 10.6328 19.5977 11.3906 19.5977 12.3672Z" fill="white" fill-opacity="0.8"/>
</svg>
