<svg width="14" height="16" viewBox="0 0 14 16" fill="none" xmlns="http://www.w3.org/2000/svg">
<path d="M6.99609 15.8125C7.26953 15.8125 7.55078 15.7031 7.73828 15.5L12.8555 10.3828C13.0664 10.1719 13.168 9.92188 13.168 9.66406C13.168 9.09375 12.7617 8.6875 12.2148 8.6875C11.918 8.6875 11.6758 8.8125 11.4961 9L9.71484 10.7656L7.93359 12.7891L7.99609 11.0938V1.94531C7.99609 1.32812 7.58984 0.914062 6.99609 0.914062C6.40234 0.914062 5.99609 1.32812 5.99609 1.94531V11.0938L6.06641 12.7891L4.27734 10.7656L2.50391 9C2.31641 8.8125 2.08203 8.6875 1.78516 8.6875C1.23828 8.6875 0.832031 9.09375 0.832031 9.66406C0.832031 9.92188 0.933594 10.1719 1.14453 10.3828L6.25391 15.5C6.44922 15.7031 6.72266 15.8125 6.99609 15.8125Z" fill="#FF5E00"/>
</svg>
