<svg width="14" height="8" viewBox="0 0 14 8" fill="none" xmlns="http://www.w3.org/2000/svg">
<path d="M6.99658 7.90625C7.29053 7.90625 7.54346 7.79004 7.76904 7.56445L12.8892 2.31445C13.0669 2.13672 13.1626 1.91797 13.1626 1.6582C13.1626 1.125 12.7388 0.701172 12.2124 0.701172C11.9526 0.701172 11.7065 0.803711 11.5151 0.995117L7.00342 5.64355L2.48486 0.995117C2.29346 0.810547 2.0542 0.701172 1.7876 0.701172C1.26123 0.701172 0.837402 1.125 0.837402 1.6582C0.837402 1.91797 0.933105 2.13672 1.11084 2.32129L6.23096 7.56445C6.47021 7.79688 6.70947 7.90625 6.99658 7.90625Z" fill="#E0E0FF" fill-opacity="0.4"/>
</svg>
