<svg width="16" height="13" viewBox="0 0 16 13" fill="none" xmlns="http://www.w3.org/2000/svg">
<path d="M6.63672 12.5078C7.21484 12.5078 7.62109 12.1016 7.62109 11.5547C7.62109 11.2578 7.49609 11.0234 7.31641 10.8359L5.55078 9.0625L3.56641 7.24219L5.32422 7.34375H14.4805C15.0898 7.34375 15.5039 6.9375 15.5039 6.34375C15.5039 5.75 15.0898 5.34375 14.4805 5.34375H5.32422L3.56641 5.4375L5.55078 3.625L7.31641 1.84375C7.50391 1.65625 7.62109 1.42188 7.62109 1.125C7.62109 0.585938 7.21484 0.171875 6.63672 0.171875C6.38672 0.171875 6.14453 0.273438 5.91797 0.492188L0.808594 5.60156C0.613281 5.78906 0.496094 6.07031 0.496094 6.34375C0.496094 6.61719 0.613281 6.89062 0.808594 7.08594L5.93359 12.1953C6.14453 12.4062 6.38672 12.5078 6.63672 12.5078Z" fill="#141029" fill-opacity="0.8"/>
</svg>
