<svg width="12" height="14" viewBox="0 0 12 14" fill="none" xmlns="http://www.w3.org/2000/svg">
<path d="M5.99658 13.5859C6.23584 13.5859 6.48193 13.4902 6.646 13.3125L11.1235 8.83496C11.3081 8.65039 11.397 8.43164 11.397 8.20605C11.397 7.70703 11.0415 7.35156 10.563 7.35156C10.3032 7.35156 10.0913 7.46094 9.93408 7.625L8.37549 9.16992L6.81689 10.9404L6.87158 9.45703V1.45215C6.87158 0.912109 6.51611 0.549805 5.99658 0.549805C5.47705 0.549805 5.12158 0.912109 5.12158 1.45215V9.45703L5.18311 10.9404L3.61768 9.16992L2.06592 7.625C1.90186 7.46094 1.69678 7.35156 1.43701 7.35156C0.958496 7.35156 0.603027 7.70703 0.603027 8.20605C0.603027 8.43164 0.691895 8.65039 0.876465 8.83496L5.34717 13.3125C5.51807 13.4902 5.75732 13.5859 5.99658 13.5859Z" fill="#00B8B9"/>
</svg>
