<svg width="14" height="16" viewBox="0 0 14 16" fill="none" xmlns="http://www.w3.org/2000/svg">
<path d="M6.99609 15.8125C7.58984 15.8125 7.99609 15.3984 7.99609 14.7812V5.63281L7.93359 3.9375L9.71484 5.96094L11.4961 7.72656C11.6758 7.91406 11.918 8.03906 12.2148 8.03906C12.7617 8.03906 13.168 7.63281 13.168 7.0625C13.168 6.80469 13.0664 6.55469 12.8555 6.34375L7.73828 1.22656C7.55078 1.02344 7.26953 0.914062 6.99609 0.914062C6.72266 0.914062 6.44922 1.02344 6.25391 1.22656L1.14453 6.34375C0.933594 6.55469 0.832031 6.80469 0.832031 7.0625C0.832031 7.63281 1.23828 8.03906 1.78516 8.03906C2.08203 8.03906 2.31641 7.91406 2.50391 7.72656L4.27734 5.96094L6.06641 3.9375L5.99609 5.63281V14.7812C5.99609 15.3984 6.40234 15.8125 6.99609 15.8125Z" fill="white"/>
</svg>
