<svg width="10" height="15" viewBox="0 0 10 15" fill="none" xmlns="http://www.w3.org/2000/svg">
<path d="M1.97266 14.3906C2.27734 14.3906 2.51953 14.2812 2.73047 14.0781L8.72266 8.22656C8.98828 7.96094 9.11328 7.6875 9.12109 7.35156C9.12109 7.01562 8.99609 6.73438 8.72266 6.47656L2.73047 0.617188C2.51953 0.414062 2.26953 0.304688 1.97266 0.304688C1.36328 0.304688 0.878906 0.789062 0.878906 1.39062C0.878906 1.6875 1.00391 1.96875 1.22266 2.1875L6.53516 7.35156L1.22266 12.5078C1.00391 12.7266 0.878906 13.0078 0.878906 13.3047C0.878906 13.9062 1.36328 14.3906 1.97266 14.3906Z" fill="#141029" fill-opacity="0.4"/>
</svg>
