<svg width="48" height="48" viewBox="0 0 48 48" fill="none" xmlns="http://www.w3.org/2000/svg">
<rect width="48" height="48" rx="12" fill="#7B25FB"/>
<path fill-rule="evenodd" clip-rule="evenodd" d="M32.54 12.1929C27.963 9.05291 21.909 8.60491 16.871 11.0329V11.0339C11.831 13.4619 8.66099 18.3569 8.66099 23.7039C8.66099 24.0669 8.67499 24.4269 8.70399 24.7869C8.788 25.8269 8.20199 26.8129 7.21799 27.2869L5.92599 27.9089V30.8149L9.72999 28.9819L10.962 28.3869L12.176 27.8029L33.97 17.3049L36.42 16.1259L41.481 13.6869V10.7829L36.463 13.2029L32.182 15.2649L11.508 25.2199C11.438 24.7159 11.403 24.2079 11.403 23.6999C11.409 19.5729 13.725 15.7569 17.492 13.6699C21.259 11.5829 25.912 11.5379 29.724 13.5499L32.174 12.3699L32.54 12.1929ZM41.481 19.4889V16.5929L13.414 30.1069L10.966 31.2889L5.92599 33.7169V36.6199L10.931 34.2089L15.212 32.1459L35.907 22.1749C35.977 22.6819 36.012 23.1929 36.012 23.7049C36.009 27.8389 33.69 31.6609 29.918 33.7489C26.145 35.8369 21.486 35.8779 17.673 33.8559L17.523 33.9319L14.866 35.2119C19.442 38.3539 25.495 38.8029 30.533 36.3749C35.572 33.9479 38.745 29.0529 38.747 23.7049C38.747 23.3399 38.732 22.9739 38.703 22.6119C38.62 21.5719 39.205 20.5859 40.188 20.1119L41.481 19.4889Z" fill="white"/>
</svg>
