<svg width="117" height="46" viewBox="0 0 117 46" fill="none" xmlns="http://www.w3.org/2000/svg">
<path fill-rule="evenodd" clip-rule="evenodd" d="M0 19.2C0 12.4794 0 9.11905 1.30792 6.55211C2.4584 4.29417 4.29417 2.4584 6.55211 1.30792C9.11905 0 12.4794 0 19.2 0H97.8C104.521 0 107.881 0 110.448 1.30792C112.706 2.4584 114.542 4.29417 115.692 6.55211C117 9.11905 117 12.4794 117 19.2V26.8C117 33.5206 117 36.8809 115.692 39.4479C114.542 41.7058 112.706 43.5416 110.448 44.6921C107.881 46 104.521 46 97.8 46H19.2C12.4794 46 9.11905 46 6.55211 44.6921C4.29417 43.5416 2.4584 41.7058 1.30792 39.4479C0 36.8809 0 33.5206 0 26.8V19.2Z" fill="white"/>
</svg>
