<svg width="535" height="264" viewBox="0 0 535 264" fill="none" xmlns="http://www.w3.org/2000/svg">
<g filter="url(#filter0_ddd_0_1393)">
<rect x="64" y="64" width="343" height="72" rx="24" fill="url(#paint0_linear_0_1393)"/>
</g>
<path fill-rule="evenodd" clip-rule="evenodd" d="M366.188 107.867C366.031 108.523 365.484 108.953 364.789 108.953H363.203C362.516 108.953 361.969 108.523 361.812 107.867L361.508 106.562L361.344 106.5L360.203 107.203C359.625 107.562 358.93 107.469 358.453 106.977L357.352 105.883C356.859 105.383 356.773 104.703 357.133 104.133L357.836 103L357.781 102.844L356.477 102.531C355.828 102.375 355.398 101.828 355.398 101.141V99.6094C355.398 98.9297 355.82 98.3828 356.477 98.2188L357.766 97.8984L357.836 97.7344L357.125 96.6016C356.766 96.0391 356.852 95.3594 357.344 94.8516L358.445 93.75C358.922 93.2656 359.609 93.1719 360.195 93.5312L361.328 94.2266L361.508 94.1562L361.812 92.8516C361.969 92.1953 362.516 91.7656 363.203 91.7656H364.789C365.484 91.7656 366.031 92.1953 366.188 92.8516L366.484 94.1562L366.664 94.2266L367.805 93.5312C368.383 93.1719 369.07 93.2656 369.555 93.75L370.648 94.8516C371.141 95.3594 371.234 96.0391 370.867 96.6016L370.164 97.7344L370.227 97.8984L371.516 98.2188C372.172 98.375 372.602 98.9297 372.602 99.6094V101.141C372.602 101.828 372.172 102.367 371.516 102.531L370.219 102.844L370.156 103L370.867 104.133C371.227 104.703 371.141 105.383 370.648 105.883L369.547 106.977C369.062 107.469 368.375 107.562 367.797 107.203L366.656 106.5L366.484 106.562L366.188 107.867ZM363.461 107.352H364.539C364.672 107.352 364.727 107.297 364.75 107.18L365.211 105.273C365.758 105.148 366.211 104.953 366.641 104.68L368.312 105.703C368.406 105.766 368.5 105.758 368.594 105.672L369.336 104.922C369.43 104.836 369.43 104.742 369.367 104.648L368.336 102.977C368.586 102.57 368.797 102.07 368.906 101.562L370.828 101.109C370.945 101.086 371 101.023 371 100.898V99.8516C371 99.7109 370.945 99.6562 370.828 99.6328L368.914 99.1719C368.797 98.6484 368.57 98.1406 368.352 97.75L369.375 96.0859C369.438 95.9844 369.438 95.8906 369.352 95.8047L368.602 95.0625C368.5 94.9766 368.422 94.9688 368.312 95.0312L366.648 96.0469C366.227 95.7969 365.742 95.5781 365.211 95.4609L364.75 93.5391C364.727 93.4219 364.672 93.3672 364.539 93.3672H363.461C363.328 93.3672 363.266 93.4219 363.25 93.5391L362.789 95.4453C362.266 95.5781 361.711 95.8047 361.344 96.0469L359.68 95.0234C359.57 94.9609 359.484 94.9688 359.391 95.0625L358.641 95.7969C358.547 95.8828 358.555 95.9766 358.617 96.0859L359.648 97.75C359.422 98.1406 359.195 98.6484 359.078 99.1797L357.172 99.6328C357.047 99.6562 356.992 99.7109 356.992 99.8516V100.898C356.992 101.023 357.055 101.086 357.172 101.109L359.086 101.562C359.195 102.07 359.414 102.562 359.656 102.977L358.625 104.648C358.562 104.75 358.562 104.844 358.648 104.93L359.398 105.68C359.492 105.766 359.586 105.773 359.68 105.711L361.352 104.68C361.773 104.953 362.273 105.156 362.789 105.273L363.25 107.18C363.266 107.297 363.328 107.352 363.461 107.352ZM364 103.32C365.617 103.32 366.945 101.984 366.945 100.359C366.945 98.7422 365.617 97.4219 364 97.4219C362.375 97.4219 361.039 98.7422 361.039 100.359C361.039 101.984 362.375 103.32 364 103.32ZM362.508 100.359C362.508 101.188 363.18 101.859 364 101.859C364.805 101.859 365.477 101.18 365.477 100.359C365.477 99.5547 364.805 98.875 364 98.875C363.188 98.875 362.508 99.5469 362.508 100.359Z" fill="#141029" fill-opacity="0.24"/>
<path fill-rule="evenodd" clip-rule="evenodd" d="M278 108.531C282.477 108.531 286.164 104.836 286.164 100.359C286.164 95.8828 282.469 92.1953 278 92.1953C273.523 92.1953 269.836 95.8828 269.836 100.359C269.836 104.836 273.523 108.531 278 108.531ZM274.648 96.2344C274.109 96.0625 273.648 95.8438 273.273 95.5859C274.039 94.8281 274.992 94.2422 276.047 93.9219C275.484 94.4766 275.008 95.2656 274.648 96.2344ZM279.961 93.9219C280.523 94.4766 281 95.2734 281.359 96.2344C281.891 96.0625 282.359 95.8438 282.727 95.5938C281.961 94.8281 281.016 94.25 279.961 93.9219ZM277.43 96.6797C276.852 96.6562 276.305 96.6016 275.797 96.5078C276.219 95.3984 276.797 94.5703 277.43 94.2578V96.6797ZM278.578 94.2578V96.6797C279.156 96.6562 279.703 96.6016 280.203 96.5078C279.789 95.3984 279.211 94.5703 278.578 94.2578ZM273.977 99.7812H271.289C271.398 98.5469 271.844 97.4062 272.539 96.4453C273 96.7969 273.609 97.0859 274.32 97.3125C274.133 98.0703 274.016 98.8984 273.977 99.7812ZM282.023 99.7812H284.711C284.602 98.5547 284.156 97.4062 283.469 96.4531C283.008 96.7969 282.398 97.0859 281.688 97.3125C281.867 98.0703 281.992 98.8984 282.023 99.7812ZM280.852 99.7812H278.578V97.8281C279.266 97.7969 279.93 97.7266 280.539 97.6016C280.703 98.2812 280.812 99.0156 280.852 99.7812ZM275.148 99.7812H277.43V97.8281C276.742 97.7969 276.078 97.7266 275.461 97.6016C275.297 98.2812 275.188 99.0156 275.148 99.7812ZM272.555 104.297C271.852 103.328 271.398 102.18 271.289 100.93H273.977C274.016 101.828 274.133 102.672 274.32 103.438C273.617 103.664 273.016 103.953 272.555 104.297ZM275.148 100.93C275.188 101.711 275.297 102.461 275.469 103.148C276.078 103.031 276.742 102.953 277.43 102.93V100.93H275.148ZM280.531 103.148C279.922 103.031 279.266 102.953 278.578 102.93V100.93H280.852C280.82 101.711 280.703 102.461 280.531 103.148ZM281.68 103.438C282.391 103.664 282.992 103.953 283.453 104.297C284.148 103.328 284.609 102.18 284.711 100.93H282.023C281.992 101.828 281.875 102.672 281.68 103.438ZM277.43 106.477C276.797 106.156 276.227 105.336 275.812 104.242C276.312 104.156 276.852 104.102 277.43 104.078V106.477ZM278.578 104.078V106.477C279.203 106.156 279.781 105.336 280.195 104.242C279.688 104.156 279.148 104.102 278.578 104.078ZM276.039 106.797C274.992 106.477 274.055 105.906 273.289 105.156C273.664 104.898 274.125 104.688 274.656 104.523C275.008 105.469 275.484 106.25 276.039 106.797ZM281.352 104.523C280.992 105.469 280.523 106.25 279.969 106.797C281.008 106.477 281.945 105.906 282.711 105.156C282.344 104.898 281.883 104.688 281.352 104.523Z" fill="#141029" fill-opacity="0.24"/>
<path fill-rule="evenodd" clip-rule="evenodd" d="M203.039 105.742C203.039 107.086 202.227 107.852 200.828 107.852H199C197.602 107.852 196.797 107.086 196.797 105.742V95C196.797 93.6641 197.602 92.8906 199 92.8906H200.828C202.227 92.8906 203.039 93.6641 203.039 95V105.742ZM199.281 106.266H200.547C201.102 106.266 201.336 106.039 201.336 105.5V95.25C201.336 94.7109 201.102 94.4766 200.555 94.4766H199.281C198.734 94.4766 198.5 94.7109 198.5 95.25V105.5C198.5 106.039 198.734 106.266 199.281 106.266ZM193.43 107.852C194.828 107.852 195.641 107.086 195.641 105.742V97.2734C195.641 95.9375 194.828 95.1719 193.43 95.1719H191.602C190.195 95.1719 189.391 95.9375 189.391 97.2812V105.742C189.391 107.086 190.195 107.852 191.602 107.852H193.43ZM191.883 106.266H193.148C193.695 106.266 193.93 106.039 193.93 105.5V97.5234C193.93 96.9844 193.695 96.75 193.148 96.75H191.883C191.336 96.75 191.102 96.9844 191.102 97.5234V105.5C191.102 106.039 191.336 106.266 191.883 106.266ZM186.023 107.852C187.43 107.852 188.234 107.086 188.234 105.742V99.5625C188.234 98.2266 187.43 97.4609 186.023 97.4609H184.203C182.797 97.4609 181.992 98.2266 181.992 99.5703V105.742C181.992 107.086 182.797 107.852 184.203 107.852H186.023ZM184.484 106.266H185.742C186.297 106.266 186.531 106.039 186.531 105.5V99.8125C186.531 99.2734 186.297 99.0391 185.75 99.0391H184.484C183.938 99.0391 183.695 99.2734 183.695 99.8125V105.5C183.695 106.039 183.938 106.266 184.484 106.266Z" fill="#141029" fill-opacity="0.24"/>
<rect x="76" y="76" width="61" height="48" rx="12" fill="#00B8B9" fill-opacity="0.03"/>
<path fill-rule="evenodd" clip-rule="evenodd" d="M115.816 100.859C116.34 100.859 116.73 100.531 116.73 100.016C116.73 99.7188 116.605 99.4688 116.371 99.2734L114.176 97.4219V94.0859C114.176 93.7344 113.941 93.5 113.59 93.5H112.324C111.973 93.5 111.73 93.7344 111.73 94.0859V95.375L108.246 92.4453C107.496 91.8125 106.527 91.8125 105.77 92.4453L97.6289 99.2734C97.3945 99.4766 97.2695 99.7422 97.2695 100C97.2695 100.477 97.6211 100.859 98.1914 100.859C98.4492 100.859 98.6992 100.727 98.918 100.547L106.621 94.0859C106.863 93.875 107.145 93.875 107.395 94.0859L115.082 100.547C115.301 100.727 115.551 100.859 115.816 100.859ZM112.168 108.938C113.371 108.938 114.121 108.227 114.121 107.07V101.328L107.496 95.7656C107.184 95.5078 106.809 95.5156 106.512 95.7656L99.8789 101.328V107.07C99.8789 108.227 100.629 108.938 101.832 108.938H112.168ZM104.926 107.312H109.082V102.422C109.082 102.055 108.84 101.82 108.473 101.82H105.535C105.168 101.82 104.926 102.055 104.926 102.422V107.312Z" fill="#00B8B9"/>
<defs>
<filter id="filter0_ddd_0_1393" x="0" y="0" width="535" height="264" filterUnits="userSpaceOnUse" color-interpolation-filters="sRGB">
<feFlood flood-opacity="0" result="BackgroundImageFix"/>
<feColorMatrix in="SourceAlpha" type="matrix" values="0 0 0 0 0 0 0 0 0 0 0 0 0 0 0 0 0 0 127 0" result="hardAlpha"/>
<feOffset dx="32" dy="32"/>
<feGaussianBlur stdDeviation="48"/>
<feColorMatrix type="matrix" values="0 0 0 0 0.0352941 0 0 0 0 0.0509804 0 0 0 0 0.0784314 0 0 0 0.06 0"/>
<feBlend mode="normal" in2="BackgroundImageFix" result="effect1_dropShadow_0_1393"/>
<feColorMatrix in="SourceAlpha" type="matrix" values="0 0 0 0 0 0 0 0 0 0 0 0 0 0 0 0 0 0 127 0" result="hardAlpha"/>
<feOffset dx="-16" dy="-16"/>
<feGaussianBlur stdDeviation="16"/>
<feColorMatrix type="matrix" values="0 0 0 0 1 0 0 0 0 1 0 0 0 0 1 0 0 0 0.4 0"/>
<feBlend mode="normal" in2="effect1_dropShadow_0_1393" result="effect2_dropShadow_0_1393"/>
<feColorMatrix in="SourceAlpha" type="matrix" values="0 0 0 0 0 0 0 0 0 0 0 0 0 0 0 0 0 0 127 0" result="hardAlpha"/>
<feOffset dy="16"/>
<feGaussianBlur stdDeviation="8"/>
<feColorMatrix type="matrix" values="0 0 0 0 0.0352941 0 0 0 0 0.0509804 0 0 0 0 0.0784314 0 0 0 0.06 0"/>
<feBlend mode="normal" in2="effect2_dropShadow_0_1393" result="effect3_dropShadow_0_1393"/>
<feBlend mode="normal" in="SourceGraphic" in2="effect3_dropShadow_0_1393" result="shape"/>
</filter>
<linearGradient id="paint0_linear_0_1393" x1="-107.5" y1="100" x2="-78.5483" y2="237.923" gradientUnits="userSpaceOnUse">
<stop stop-color="white"/>
<stop offset="0.51822" stop-color="#FAFBFC"/>
<stop offset="1" stop-color="#F5F7FA"/>
</linearGradient>
</defs>
</svg>
