<svg width="535" height="264" viewBox="0 0 535 264" fill="none" xmlns="http://www.w3.org/2000/svg">
<g filter="url(#filter0_ddd_0_1740)">
<rect x="64" y="64" width="343" height="72" rx="24" fill="url(#paint0_linear_0_1740)"/>
</g>
<rect x="333" y="76" width="62" height="48" rx="12" fill="#00B8B9" fill-opacity="0.03"/>
<path fill-rule="evenodd" clip-rule="evenodd" d="M365.734 107.969C365.625 108.469 365.234 108.789 364.711 108.789H363.289C362.766 108.789 362.375 108.469 362.266 107.969L361.883 106.367C361.648 106.289 361.422 106.195 361.219 106.102L359.82 106.961C359.391 107.227 358.883 107.18 358.523 106.828L357.523 105.828C357.164 105.469 357.117 104.938 357.398 104.516L358.25 103.125C358.156 102.914 358.07 102.703 358 102.484L356.383 102.102C355.883 101.992 355.57 101.602 355.57 101.078V99.6797C355.57 99.1719 355.883 98.7734 356.383 98.6641L357.984 98.2812C358.055 98.0613 358.139 97.8606 358.213 97.6852C358.22 97.6674 358.227 97.65 358.234 97.6328L357.383 96.2188C357.102 95.7812 357.141 95.2734 357.516 94.9141L358.523 93.9141C358.891 93.5781 359.352 93.5234 359.789 93.7656L361.211 94.6406C361.414 94.5312 361.648 94.4453 361.883 94.3594L362.266 92.7578C362.375 92.25 362.766 91.9297 363.289 91.9297H364.711C365.234 91.9297 365.625 92.25 365.734 92.75L366.125 94.375C366.359 94.4609 366.578 94.5469 366.781 94.6484L368.211 93.7656C368.648 93.5234 369.109 93.5859 369.469 93.9141L370.484 94.9141C370.859 95.2734 370.898 95.7812 370.617 96.2188L369.766 97.6328C369.773 97.65 369.78 97.6674 369.787 97.6852C369.861 97.8606 369.945 98.0613 370.016 98.2812L371.617 98.6641C372.125 98.7734 372.43 99.1719 372.43 99.6797V101.078C372.43 101.602 372.125 101.992 371.617 102.102L370 102.484C369.93 102.703 369.844 102.914 369.75 103.125L370.602 104.516C370.883 104.938 370.836 105.469 370.477 105.828L369.477 106.828C369.117 107.18 368.609 107.227 368.18 106.961L366.781 106.102C366.578 106.195 366.352 106.289 366.117 106.367L365.734 107.969ZM361.289 100.352C361.289 101.852 362.508 103.07 364 103.07C365.492 103.07 366.711 101.852 366.711 100.352C366.711 98.875 365.492 97.6484 364 97.6484C362.508 97.6484 361.289 98.875 361.289 100.352Z" fill="#00B8B9"/>
<path fill-rule="evenodd" clip-rule="evenodd" d="M278 108.531C282.477 108.531 286.164 104.836 286.164 100.359C286.164 95.8828 282.469 92.1953 278 92.1953C273.523 92.1953 269.836 95.8828 269.836 100.359C269.836 104.836 273.523 108.531 278 108.531ZM274.648 96.2344C274.109 96.0625 273.648 95.8438 273.273 95.5859C274.039 94.8281 274.992 94.2422 276.047 93.9219C275.484 94.4766 275.008 95.2656 274.648 96.2344ZM279.961 93.9219C280.523 94.4766 281 95.2734 281.359 96.2344C281.891 96.0625 282.359 95.8438 282.727 95.5938C281.961 94.8281 281.016 94.25 279.961 93.9219ZM277.43 96.6797C276.852 96.6562 276.305 96.6016 275.797 96.5078C276.219 95.3984 276.797 94.5703 277.43 94.2578V96.6797ZM278.578 94.2578V96.6797C279.156 96.6562 279.703 96.6016 280.203 96.5078C279.789 95.3984 279.211 94.5703 278.578 94.2578ZM273.977 99.7812H271.289C271.398 98.5469 271.844 97.4062 272.539 96.4453C273 96.7969 273.609 97.0859 274.32 97.3125C274.133 98.0703 274.016 98.8984 273.977 99.7812ZM282.023 99.7812H284.711C284.602 98.5547 284.156 97.4062 283.469 96.4531C283.008 96.7969 282.398 97.0859 281.688 97.3125C281.867 98.0703 281.992 98.8984 282.023 99.7812ZM280.852 99.7812H278.578V97.8281C279.266 97.7969 279.93 97.7266 280.539 97.6016C280.703 98.2812 280.812 99.0156 280.852 99.7812ZM275.148 99.7812H277.43V97.8281C276.742 97.7969 276.078 97.7266 275.461 97.6016C275.297 98.2812 275.188 99.0156 275.148 99.7812ZM272.555 104.297C271.852 103.328 271.398 102.18 271.289 100.93H273.977C274.016 101.828 274.133 102.672 274.32 103.438C273.617 103.664 273.016 103.953 272.555 104.297ZM275.148 100.93C275.188 101.711 275.297 102.461 275.469 103.148C276.078 103.031 276.742 102.953 277.43 102.93V100.93H275.148ZM280.531 103.148C279.922 103.031 279.266 102.953 278.578 102.93V100.93H280.852C280.82 101.711 280.703 102.461 280.531 103.148ZM281.68 103.438C282.391 103.664 282.992 103.953 283.453 104.297C284.148 103.328 284.609 102.18 284.711 100.93H282.023C281.992 101.828 281.875 102.672 281.68 103.438ZM277.43 106.477C276.797 106.156 276.227 105.336 275.812 104.242C276.312 104.156 276.852 104.102 277.43 104.078V106.477ZM278.578 104.078V106.477C279.203 106.156 279.781 105.336 280.195 104.242C279.688 104.156 279.148 104.102 278.578 104.078ZM276.039 106.797C274.992 106.477 274.055 105.906 273.289 105.156C273.664 104.898 274.125 104.688 274.656 104.523C275.008 105.469 275.484 106.25 276.039 106.797ZM281.352 104.523C280.992 105.469 280.523 106.25 279.969 106.797C281.008 106.477 281.945 105.906 282.711 105.156C282.344 104.898 281.883 104.688 281.352 104.523Z" fill="#141029" fill-opacity="0.24"/>
<path fill-rule="evenodd" clip-rule="evenodd" d="M203.039 105.742C203.039 107.086 202.227 107.852 200.828 107.852H199C197.602 107.852 196.797 107.086 196.797 105.742V95C196.797 93.6641 197.602 92.8906 199 92.8906H200.828C202.227 92.8906 203.039 93.6641 203.039 95V105.742ZM199.281 106.266H200.547C201.102 106.266 201.336 106.039 201.336 105.5V95.25C201.336 94.7109 201.102 94.4766 200.555 94.4766H199.281C198.734 94.4766 198.5 94.7109 198.5 95.25V105.5C198.5 106.039 198.734 106.266 199.281 106.266ZM193.43 107.852C194.828 107.852 195.641 107.086 195.641 105.742V97.2734C195.641 95.9375 194.828 95.1719 193.43 95.1719H191.602C190.195 95.1719 189.391 95.9375 189.391 97.2812V105.742C189.391 107.086 190.195 107.852 191.602 107.852H193.43ZM191.883 106.266H193.148C193.695 106.266 193.93 106.039 193.93 105.5V97.5234C193.93 96.9844 193.695 96.75 193.148 96.75H191.883C191.336 96.75 191.102 96.9844 191.102 97.5234V105.5C191.102 106.039 191.336 106.266 191.883 106.266ZM186.023 107.852C187.43 107.852 188.234 107.086 188.234 105.742V99.5625C188.234 98.2266 187.43 97.4609 186.023 97.4609H184.203C182.797 97.4609 181.992 98.2266 181.992 99.5703V105.742C181.992 107.086 182.797 107.852 184.203 107.852H186.023ZM184.484 106.266H185.742C186.297 106.266 186.531 106.039 186.531 105.5V99.8125C186.531 99.2734 186.297 99.0391 185.75 99.0391H184.484C183.938 99.0391 183.695 99.2734 183.695 99.8125V105.5C183.695 106.039 183.938 106.266 184.484 106.266Z" fill="#141029" fill-opacity="0.24"/>
<path fill-rule="evenodd" clip-rule="evenodd" d="M114.254 107C114.254 108.211 113.52 108.938 112.27 108.938H101.691C100.441 108.938 99.707 108.211 99.707 107V99.8828L98.918 100.547C98.6992 100.727 98.4492 100.859 98.1914 100.859C97.6211 100.859 97.2695 100.477 97.2695 100C97.2695 99.7422 97.3945 99.4766 97.6289 99.2734L105.77 92.4453C106.527 91.8125 107.496 91.8125 108.246 92.4453L111.816 95.4453V94.0859C111.816 93.7344 112.059 93.5 112.41 93.5H113.676C114.027 93.5 114.254 93.7344 114.254 94.0859V97.4922L116.371 99.2734C116.605 99.4688 116.73 99.7188 116.73 100.016C116.73 100.531 116.34 100.859 115.816 100.859C115.551 100.859 115.301 100.727 115.082 100.547L114.254 99.8516V107ZM102.23 107.148H104.762V102.117C104.762 101.75 105.004 101.516 105.379 101.516H108.637C109.004 101.516 109.238 101.75 109.238 102.117V107.148H111.73C112.207 107.148 112.473 106.883 112.473 106.398V98.3438L107.395 94.0859C107.145 93.875 106.863 93.875 106.621 94.0859L101.488 98.3828V106.398C101.488 106.883 101.754 107.148 102.23 107.148Z" fill="#141029" fill-opacity="0.24"/>
<defs>
<filter id="filter0_ddd_0_1740" x="0" y="0" width="535" height="264" filterUnits="userSpaceOnUse" color-interpolation-filters="sRGB">
<feFlood flood-opacity="0" result="BackgroundImageFix"/>
<feColorMatrix in="SourceAlpha" type="matrix" values="0 0 0 0 0 0 0 0 0 0 0 0 0 0 0 0 0 0 127 0" result="hardAlpha"/>
<feOffset dx="32" dy="32"/>
<feGaussianBlur stdDeviation="48"/>
<feColorMatrix type="matrix" values="0 0 0 0 0.0352941 0 0 0 0 0.0509804 0 0 0 0 0.0784314 0 0 0 0.06 0"/>
<feBlend mode="normal" in2="BackgroundImageFix" result="effect1_dropShadow_0_1740"/>
<feColorMatrix in="SourceAlpha" type="matrix" values="0 0 0 0 0 0 0 0 0 0 0 0 0 0 0 0 0 0 127 0" result="hardAlpha"/>
<feOffset dx="-16" dy="-16"/>
<feGaussianBlur stdDeviation="16"/>
<feColorMatrix type="matrix" values="0 0 0 0 1 0 0 0 0 1 0 0 0 0 1 0 0 0 0.4 0"/>
<feBlend mode="normal" in2="effect1_dropShadow_0_1740" result="effect2_dropShadow_0_1740"/>
<feColorMatrix in="SourceAlpha" type="matrix" values="0 0 0 0 0 0 0 0 0 0 0 0 0 0 0 0 0 0 127 0" result="hardAlpha"/>
<feOffset dy="16"/>
<feGaussianBlur stdDeviation="8"/>
<feColorMatrix type="matrix" values="0 0 0 0 0.0352941 0 0 0 0 0.0509804 0 0 0 0 0.0784314 0 0 0 0.06 0"/>
<feBlend mode="normal" in2="effect2_dropShadow_0_1740" result="effect3_dropShadow_0_1740"/>
<feBlend mode="normal" in="SourceGraphic" in2="effect3_dropShadow_0_1740" result="shape"/>
</filter>
<linearGradient id="paint0_linear_0_1740" x1="-107.5" y1="100" x2="-78.5483" y2="237.923" gradientUnits="userSpaceOnUse">
<stop stop-color="white"/>
<stop offset="0.51822" stop-color="#FAFBFC"/>
<stop offset="1" stop-color="#F5F7FA"/>
</linearGradient>
</defs>
</svg>
