<svg width="535" height="264" viewBox="0 0 535 264" fill="none" xmlns="http://www.w3.org/2000/svg">
<g filter="url(#filter0_ddd_0_1851)">
<rect x="64" y="64" width="343" height="72" rx="24" fill="url(#paint0_linear_0_1851)"/>
</g>
<path fill-rule="evenodd" clip-rule="evenodd" d="M366.188 107.867C366.031 108.523 365.484 108.953 364.789 108.953H363.203C362.516 108.953 361.969 108.523 361.812 107.867L361.508 106.562L361.344 106.5L360.203 107.203C359.625 107.562 358.93 107.469 358.453 106.977L357.352 105.883C356.859 105.383 356.773 104.703 357.133 104.133L357.836 103L357.781 102.844L356.477 102.531C355.828 102.375 355.398 101.828 355.398 101.141V99.6094C355.398 98.9297 355.82 98.3828 356.477 98.2188L357.766 97.8984L357.836 97.7344L357.125 96.6016C356.766 96.0391 356.852 95.3594 357.344 94.8516L358.445 93.75C358.922 93.2656 359.609 93.1719 360.195 93.5312L361.328 94.2266L361.508 94.1562L361.812 92.8516C361.969 92.1953 362.516 91.7656 363.203 91.7656H364.789C365.484 91.7656 366.031 92.1953 366.188 92.8516L366.484 94.1562L366.664 94.2266L367.805 93.5312C368.383 93.1719 369.07 93.2656 369.555 93.75L370.648 94.8516C371.141 95.3594 371.234 96.0391 370.867 96.6016L370.164 97.7344L370.227 97.8984L371.516 98.2188C372.172 98.375 372.602 98.9297 372.602 99.6094V101.141C372.602 101.828 372.172 102.367 371.516 102.531L370.219 102.844L370.156 103L370.867 104.133C371.227 104.703 371.141 105.383 370.648 105.883L369.547 106.977C369.062 107.469 368.375 107.562 367.797 107.203L366.656 106.5L366.484 106.562L366.188 107.867ZM363.461 107.352H364.539C364.672 107.352 364.727 107.297 364.75 107.18L365.211 105.273C365.758 105.148 366.211 104.953 366.641 104.68L368.312 105.703C368.406 105.766 368.5 105.758 368.594 105.672L369.336 104.922C369.43 104.836 369.43 104.742 369.367 104.648L368.336 102.977C368.586 102.57 368.797 102.07 368.906 101.562L370.828 101.109C370.945 101.086 371 101.023 371 100.898V99.8516C371 99.7109 370.945 99.6562 370.828 99.6328L368.914 99.1719C368.797 98.6484 368.57 98.1406 368.352 97.75L369.375 96.0859C369.438 95.9844 369.438 95.8906 369.352 95.8047L368.602 95.0625C368.5 94.9766 368.422 94.9688 368.312 95.0312L366.648 96.0469C366.227 95.7969 365.742 95.5781 365.211 95.4609L364.75 93.5391C364.727 93.4219 364.672 93.3672 364.539 93.3672H363.461C363.328 93.3672 363.266 93.4219 363.25 93.5391L362.789 95.4453C362.266 95.5781 361.711 95.8047 361.344 96.0469L359.68 95.0234C359.57 94.9609 359.484 94.9688 359.391 95.0625L358.641 95.7969C358.547 95.8828 358.555 95.9766 358.617 96.0859L359.648 97.75C359.422 98.1406 359.195 98.6484 359.078 99.1797L357.172 99.6328C357.047 99.6562 356.992 99.7109 356.992 99.8516V100.898C356.992 101.023 357.055 101.086 357.172 101.109L359.086 101.562C359.195 102.07 359.414 102.562 359.656 102.977L358.625 104.648C358.562 104.75 358.562 104.844 358.648 104.93L359.398 105.68C359.492 105.766 359.586 105.773 359.68 105.711L361.352 104.68C361.773 104.953 362.273 105.156 362.789 105.273L363.25 107.18C363.266 107.297 363.328 107.352 363.461 107.352ZM364 103.32C365.617 103.32 366.945 101.984 366.945 100.359C366.945 98.7422 365.617 97.4219 364 97.4219C362.375 97.4219 361.039 98.7422 361.039 100.359C361.039 101.984 362.375 103.32 364 103.32ZM362.508 100.359C362.508 101.188 363.18 101.859 364 101.859C364.805 101.859 365.477 101.18 365.477 100.359C365.477 99.5547 364.805 98.875 364 98.875C363.188 98.875 362.508 99.5469 362.508 100.359Z" fill="#141029" fill-opacity="0.24"/>
<path fill-rule="evenodd" clip-rule="evenodd" d="M278 108.531C282.477 108.531 286.164 104.836 286.164 100.359C286.164 95.8828 282.469 92.1953 278 92.1953C273.523 92.1953 269.836 95.8828 269.836 100.359C269.836 104.836 273.523 108.531 278 108.531ZM274.648 96.2344C274.109 96.0625 273.648 95.8438 273.273 95.5859C274.039 94.8281 274.992 94.2422 276.047 93.9219C275.484 94.4766 275.008 95.2656 274.648 96.2344ZM279.961 93.9219C280.523 94.4766 281 95.2734 281.359 96.2344C281.891 96.0625 282.359 95.8438 282.727 95.5938C281.961 94.8281 281.016 94.25 279.961 93.9219ZM277.43 96.6797C276.852 96.6562 276.305 96.6016 275.797 96.5078C276.219 95.3984 276.797 94.5703 277.43 94.2578V96.6797ZM278.578 94.2578V96.6797C279.156 96.6562 279.703 96.6016 280.203 96.5078C279.789 95.3984 279.211 94.5703 278.578 94.2578ZM273.977 99.7812H271.289C271.398 98.5469 271.844 97.4062 272.539 96.4453C273 96.7969 273.609 97.0859 274.32 97.3125C274.133 98.0703 274.016 98.8984 273.977 99.7812ZM282.023 99.7812H284.711C284.602 98.5547 284.156 97.4062 283.469 96.4531C283.008 96.7969 282.398 97.0859 281.688 97.3125C281.867 98.0703 281.992 98.8984 282.023 99.7812ZM280.852 99.7812H278.578V97.8281C279.266 97.7969 279.93 97.7266 280.539 97.6016C280.703 98.2812 280.812 99.0156 280.852 99.7812ZM275.148 99.7812H277.43V97.8281C276.742 97.7969 276.078 97.7266 275.461 97.6016C275.297 98.2812 275.188 99.0156 275.148 99.7812ZM272.555 104.297C271.852 103.328 271.398 102.18 271.289 100.93H273.977C274.016 101.828 274.133 102.672 274.32 103.438C273.617 103.664 273.016 103.953 272.555 104.297ZM275.148 100.93C275.188 101.711 275.297 102.461 275.469 103.148C276.078 103.031 276.742 102.953 277.43 102.93V100.93H275.148ZM280.531 103.148C279.922 103.031 279.266 102.953 278.578 102.93V100.93H280.852C280.82 101.711 280.703 102.461 280.531 103.148ZM281.68 103.438C282.391 103.664 282.992 103.953 283.453 104.297C284.148 103.328 284.609 102.18 284.711 100.93H282.023C281.992 101.828 281.875 102.672 281.68 103.438ZM277.43 106.477C276.797 106.156 276.227 105.336 275.812 104.242C276.312 104.156 276.852 104.102 277.43 104.078V106.477ZM278.578 104.078V106.477C279.203 106.156 279.781 105.336 280.195 104.242C279.688 104.156 279.148 104.102 278.578 104.078ZM276.039 106.797C274.992 106.477 274.055 105.906 273.289 105.156C273.664 104.898 274.125 104.688 274.656 104.523C275.008 105.469 275.484 106.25 276.039 106.797ZM281.352 104.523C280.992 105.469 280.523 106.25 279.969 106.797C281.008 106.477 281.945 105.906 282.711 105.156C282.344 104.898 281.883 104.688 281.352 104.523Z" fill="#141029" fill-opacity="0.24"/>
<rect x="161" y="76" width="62" height="48" rx="12" fill="#00B8B9" fill-opacity="0.03"/>
<path fill-rule="evenodd" clip-rule="evenodd" d="M200.852 107.734C202.102 107.734 202.797 107.055 202.797 105.859V94.8203C202.797 93.625 202.102 92.9375 200.852 92.9375H198.734C197.484 92.9375 196.797 93.625 196.797 94.8203V105.859C196.797 107.055 197.484 107.734 198.734 107.734H200.852ZM193.453 107.734C194.703 107.734 195.391 107.055 195.391 105.859V97.0938C195.391 95.8984 194.703 95.2188 193.453 95.2188H191.328C190.086 95.2188 189.391 95.8984 189.391 97.0938V105.859C189.391 107.055 190.086 107.734 191.328 107.734H193.453ZM187.992 105.859C187.992 107.055 187.297 107.734 186.047 107.734H183.93C182.688 107.734 181.992 107.055 181.992 105.859V99.3828C181.992 98.1875 182.688 97.5078 183.93 97.5078H186.047C187.297 97.5078 187.992 98.1875 187.992 99.3828V105.859Z" fill="#00B8B9"/>
<path fill-rule="evenodd" clip-rule="evenodd" d="M114.254 107C114.254 108.211 113.52 108.938 112.27 108.938H101.691C100.441 108.938 99.707 108.211 99.707 107V99.8828L98.918 100.547C98.6992 100.727 98.4492 100.859 98.1914 100.859C97.6211 100.859 97.2695 100.477 97.2695 100C97.2695 99.7422 97.3945 99.4766 97.6289 99.2734L105.77 92.4453C106.527 91.8125 107.496 91.8125 108.246 92.4453L111.816 95.4453V94.0859C111.816 93.7344 112.059 93.5 112.41 93.5H113.676C114.027 93.5 114.254 93.7344 114.254 94.0859V97.4922L116.371 99.2734C116.605 99.4688 116.73 99.7188 116.73 100.016C116.73 100.531 116.34 100.859 115.816 100.859C115.551 100.859 115.301 100.727 115.082 100.547L114.254 99.8516V107ZM102.23 107.148H104.762V102.117C104.762 101.75 105.004 101.516 105.379 101.516H108.637C109.004 101.516 109.238 101.75 109.238 102.117V107.148H111.73C112.207 107.148 112.473 106.883 112.473 106.398V98.3438L107.395 94.0859C107.145 93.875 106.863 93.875 106.621 94.0859L101.488 98.3828V106.398C101.488 106.883 101.754 107.148 102.23 107.148Z" fill="#141029" fill-opacity="0.24"/>
<defs>
<filter id="filter0_ddd_0_1851" x="0" y="0" width="535" height="264" filterUnits="userSpaceOnUse" color-interpolation-filters="sRGB">
<feFlood flood-opacity="0" result="BackgroundImageFix"/>
<feColorMatrix in="SourceAlpha" type="matrix" values="0 0 0 0 0 0 0 0 0 0 0 0 0 0 0 0 0 0 127 0" result="hardAlpha"/>
<feOffset dx="32" dy="32"/>
<feGaussianBlur stdDeviation="48"/>
<feColorMatrix type="matrix" values="0 0 0 0 0.0352941 0 0 0 0 0.0509804 0 0 0 0 0.0784314 0 0 0 0.06 0"/>
<feBlend mode="normal" in2="BackgroundImageFix" result="effect1_dropShadow_0_1851"/>
<feColorMatrix in="SourceAlpha" type="matrix" values="0 0 0 0 0 0 0 0 0 0 0 0 0 0 0 0 0 0 127 0" result="hardAlpha"/>
<feOffset dx="-16" dy="-16"/>
<feGaussianBlur stdDeviation="16"/>
<feColorMatrix type="matrix" values="0 0 0 0 1 0 0 0 0 1 0 0 0 0 1 0 0 0 0.4 0"/>
<feBlend mode="normal" in2="effect1_dropShadow_0_1851" result="effect2_dropShadow_0_1851"/>
<feColorMatrix in="SourceAlpha" type="matrix" values="0 0 0 0 0 0 0 0 0 0 0 0 0 0 0 0 0 0 127 0" result="hardAlpha"/>
<feOffset dy="16"/>
<feGaussianBlur stdDeviation="8"/>
<feColorMatrix type="matrix" values="0 0 0 0 0.0352941 0 0 0 0 0.0509804 0 0 0 0 0.0784314 0 0 0 0.06 0"/>
<feBlend mode="normal" in2="effect2_dropShadow_0_1851" result="effect3_dropShadow_0_1851"/>
<feBlend mode="normal" in="SourceGraphic" in2="effect3_dropShadow_0_1851" result="shape"/>
</filter>
<linearGradient id="paint0_linear_0_1851" x1="-107.5" y1="100" x2="-78.5483" y2="237.923" gradientUnits="userSpaceOnUse">
<stop stop-color="white"/>
<stop offset="0.51822" stop-color="#FAFBFC"/>
<stop offset="1" stop-color="#F5F7FA"/>
</linearGradient>
</defs>
</svg>
