<svg width="50" height="50" viewBox="0 0 50 50" fill="none" xmlns="http://www.w3.org/2000/svg">
<path d="M25 45.6069C19.5347 45.6069 14.2933 43.4359 10.4287 39.5713C6.56419 35.7068 4.39312 30.4653 4.39312 25.0001C4.39312 19.5348 6.56419 14.2933 10.4287 10.4288C14.2933 6.56426 19.5347 4.39318 25 4.39318C30.4653 4.39318 35.7067 6.56426 39.5713 10.4288C43.4358 14.2933 45.6069 19.5348 45.6069 25.0001C45.6069 30.4653 43.4358 35.7068 39.5713 39.5713C35.7067 43.4359 30.4653 45.6069 25 45.6069ZM25 48.5508C31.246 48.5508 37.2362 46.0695 41.6529 41.6529C46.0695 37.2363 48.5507 31.2461 48.5507 25.0001C48.5507 18.754 46.0695 12.7638 41.6529 8.34719C37.2362 3.93057 31.246 1.44934 25 1.44934C18.754 1.44934 12.7637 3.93057 8.34712 8.34719C3.93051 12.7638 1.44928 18.754 1.44928 25.0001C1.44928 31.2461 3.93051 37.2363 8.34712 41.6529C12.7637 46.0695 18.754 48.5508 25 48.5508Z" fill="black"/>
<path d="M19.7428 14.9998C20.0205 14.8568 20.3323 14.7932 20.6438 14.8159C20.9554 14.8387 21.2546 14.947 21.5086 15.1288L33.3933 23.6179C33.6134 23.775 33.7928 23.9823 33.9166 24.2227C34.0403 24.4631 34.1049 24.7296 34.1049 24.9999C34.1049 25.2703 34.0403 25.5368 33.9166 25.7772C33.7928 26.0176 33.6134 26.2249 33.3933 26.382L21.5086 34.8711C21.2547 35.0528 20.9556 35.161 20.6442 35.1837C20.3329 35.2065 20.0212 35.143 19.7436 35.0001C19.466 34.8573 19.2332 34.6406 19.0707 34.3741C18.9082 34.1075 18.8223 33.8012 18.8226 33.489V16.5108C18.8223 16.1987 18.908 15.8925 19.0703 15.626C19.2327 15.3594 19.4654 15.1427 19.7428 14.9998Z" fill="black"/>
</svg>
