<svg width="24" height="24" viewBox="0 0 24 24" fill="none" xmlns="http://www.w3.org/2000/svg">
<path fill-rule="evenodd" clip-rule="evenodd" d="M23.1641 12.375C23.1641 13.9688 18.8672 19.1953 12.375 19.1953C5.97656 19.1953 1.59375 13.9688 1.59375 12.375C1.59375 10.7656 5.98438 5.55469 12.375 5.55469C18.8594 5.55469 23.1641 10.7656 23.1641 12.375ZM3.75 12.375C3.75 13.4453 7.52344 17.4453 12.375 17.4453C17.2188 17.4453 21.0078 13.4453 21.0078 12.375C21.0078 11.4688 17.2188 7.30469 12.375 7.30469C7.52344 7.30469 3.75 11.4688 3.75 12.375ZM12.3828 16.4219C14.6328 16.4219 16.4375 14.5781 16.4375 12.375C16.4375 10.1172 14.6328 8.32812 12.3828 8.32812C10.125 8.32812 8.3125 10.1094 8.32031 12.375C8.32812 14.5781 10.125 16.4219 12.3828 16.4219ZM11.1016 12.375C11.1016 13.0625 11.6719 13.6406 12.375 13.6406C13.0859 13.6406 13.6562 13.0625 13.6562 12.375C13.6562 11.6719 13.0859 11.1016 12.375 11.1016C11.6719 11.1016 11.1016 11.6719 11.1016 12.375Z" fill="#141029" fill-opacity="0.4"/>
</svg>
